<svg id="svg" version="1.1" width="760" height="630" xmlns="http://www.w3.org/2000/svg" xmlns:xlink="http://www.w3.org/1999/xlink" style="display: block;"><g id="svgg"><path id="path0" d="M0.000 165.789 L 0.000 331.579 200.000 331.579 L 400.000 331.579 400.000 165.789 L 400.000 0.000 200.000 0.000 L 0.000 0.000 0.000 165.789 M181.813 22.852 C 185.778 24.799,189.187 28.195,190.873 31.876 C 191.897 34.113,195.261 49.714,195.263 52.237 C 195.263 52.454,181.586 52.633,164.868 52.636 C 148.151 52.638,132.579 52.859,130.263 53.126 C 113.420 55.073,99.895 66.779,95.409 83.293 C 94.599 86.278,94.501 92.279,94.347 148.816 C 94.238 189.040,93.995 211.053,93.661 211.053 C 93.377 211.053,87.049 212.139,79.599 213.467 C 61.080 216.768,57.187 216.367,50.829 210.506 C 45.816 205.886,46.574 209.183,33.361 134.474 C 19.219 54.511,19.540 58.304,26.306 50.900 C 31.381 45.348,26.496 46.496,102.068 33.097 C 177.791 19.673,175.846 19.922,181.813 22.852 M277.809 75.427 C 281.570 77.408,285.040 80.980,286.753 84.633 L 288.158 87.632 288.158 160.263 L 288.158 232.895 286.753 235.893 C 284.960 239.718,281.296 243.381,277.472 245.174 L 274.474 246.579 201.579 246.579 L 128.684 246.579 125.357 244.775 C 119.697 241.706,116.338 236.926,115.286 230.441 C 114.515 225.691,114.537 93.907,115.309 89.731 C 116.682 82.301,121.215 76.973,128.339 74.414 C 129.898 73.854,143.987 73.744,202.632 73.835 L 275.000 73.947 277.809 75.427 M338.229 135.004 C 368.127 145.874,368.501 146.036,371.947 149.573 C 375.600 153.324,377.111 157.246,377.077 162.895 L 377.049 167.632 354.361 229.737 C 341.882 263.895,331.025 293.578,330.234 295.699 C 327.209 303.807,320.404 308.684,312.116 308.684 L 307.632 308.684 252.023 288.421 L 196.414 268.158 235.707 267.867 C 273.600 267.587,275.141 267.537,278.947 266.467 C 295.968 261.682,307.129 248.663,308.939 231.485 C 309.239 228.636,309.459 205.226,309.465 175.658 C 309.470 147.651,309.590 124.737,309.732 124.737 C 309.875 124.737,322.698 129.357,338.229 135.004 M193.095 147.895 C 191.431 149.964,191.344 150.000,187.938 150.007 C 180.472 150.023,180.521 149.917,180.545 166.158 C 180.572 183.990,178.903 182.632,200.789 182.632 C 222.676 182.632,221.007 183.990,221.034 166.158 C 221.058 149.917,221.106 150.023,213.641 150.007 C 210.235 150.000,210.148 149.964,208.484 147.895 L 206.793 145.789 200.789 145.789 L 194.786 145.789 193.095 147.895 M205.780 156.837 C 212.844 160.441,212.844 171.664,205.780 175.268 C 198.394 179.036,190.789 174.340,190.789 166.011 C 190.789 157.724,198.395 153.070,205.780 156.837 M196.596 161.860 C 195.027 163.429,194.737 164.084,194.737 166.053 C 194.737 168.022,195.027 168.676,196.596 170.246 C 198.166 171.815,198.820 172.105,200.789 172.105 C 202.759 172.105,203.413 171.815,204.982 170.246 C 206.552 168.676,206.842 168.022,206.842 166.053 C 206.842 164.084,206.552 163.429,204.982 161.860 C 203.413 160.290,202.759 160.000,200.789 160.000 C 198.820 160.000,198.166 160.290,196.596 161.860 " stroke="none" fill="#ffffff" fill-rule="evenodd"></path><path id="path1" d="M21.175 63.684 C 21.175 64.697,21.283 65.112,21.415 64.605 C 21.548 64.099,21.548 63.270,21.415 62.763 C 21.283 62.257,21.175 62.671,21.175 63.684 M114.992 160.000 C 114.992 197.776,115.055 213.230,115.132 194.342 C 115.208 175.454,115.208 144.546,115.132 125.658 C 115.055 106.770,114.992 122.224,114.992 160.000 M309.069 230.000 C 309.069 231.013,309.178 231.428,309.310 230.921 C 309.443 230.414,309.443 229.586,309.310 229.079 C 309.178 228.572,309.069 228.987,309.069 230.000 M120.526 241.316 C 121.508 242.329,122.430 243.158,122.575 243.158 C 122.720 243.158,122.035 242.329,121.053 241.316 C 120.071 240.303,119.149 239.474,119.004 239.474 C 118.859 239.474,119.544 240.303,120.526 241.316 M270.658 267.731 C 271.164 267.864,271.993 267.864,272.500 267.731 C 273.007 267.599,272.592 267.491,271.579 267.491 C 270.566 267.491,270.151 267.599,270.658 267.731 " stroke="none" fill="#fafbfb" fill-rule="evenodd"></path><path id="path2" d="M171.316 21.433 C 155.363 23.684,34.951 45.584,32.508 46.678 C 26.843 49.218,22.417 55.511,21.812 61.887 C 21.354 66.708,45.156 200.877,47.214 205.081 C 52.607 216.095,62.622 217.352,92.500 210.767 L 93.684 210.506 93.698 152.490 C 93.705 120.006,93.931 92.216,94.210 89.344 C 95.675 74.284,105.168 61.292,118.914 55.534 C 125.653 52.711,126.546 52.651,161.974 52.641 C 189.301 52.633,194.737 52.512,194.737 51.913 C 194.737 49.356,191.502 34.028,190.525 31.952 C 187.774 26.110,177.833 19.904,173.193 21.131 C 173.029 21.175,172.184 21.311,171.316 21.433 M130.740 74.221 C 123.562 75.663,117.913 81.023,116.074 88.137 C 114.848 92.881,114.848 227.645,116.074 232.389 C 117.642 238.457,122.299 243.565,128.158 245.645 C 132.380 247.144,271.561 247.084,275.526 245.582 C 280.986 243.514,285.073 239.426,287.157 233.947 C 288.720 229.839,288.720 90.687,287.157 86.579 C 285.134 81.262,280.920 76.948,275.714 74.865 C 273.207 73.862,135.572 73.251,130.740 74.221 M309.474 178.914 C 309.474 238.528,309.592 236.299,306.005 244.126 C 301.823 253.253,295.086 260.060,286.052 264.288 C 278.701 267.728,280.927 267.564,237.340 267.875 L 197.574 268.158 252.340 288.143 L 307.105 308.129 311.842 308.143 C 319.146 308.166,325.522 304.542,328.572 298.635 C 329.007 297.794,339.986 267.974,352.971 232.368 L 376.579 167.632 376.579 162.632 C 376.579 155.456,373.572 150.058,367.632 146.573 C 365.956 145.590,313.945 126.338,310.395 125.387 C 309.522 125.153,309.474 127.958,309.474 178.914 M209.175 147.632 C 210.573 149.465,210.601 149.474,214.764 149.474 C 221.368 149.474,221.053 148.649,221.053 165.936 C 221.053 178.078,220.926 180.473,220.233 181.462 L 219.414 182.632 200.789 182.632 L 182.165 182.632 181.346 181.462 C 180.653 180.473,180.526 178.078,180.526 165.936 C 180.526 148.649,180.211 149.474,186.815 149.474 C 190.978 149.474,191.006 149.465,192.404 147.632 L 193.809 145.789 200.789 145.789 L 207.770 145.789 209.175 147.632 M196.579 157.306 C 189.020 160.777,189.266 171.759,196.976 174.980 C 203.479 177.697,210.503 173.061,210.503 166.053 C 210.503 158.859,203.195 154.268,196.579 157.306 M204.677 160.484 C 208.325 163.081,208.690 167.591,205.509 170.772 C 202.279 174.002,197.818 173.586,195.122 169.804 C 190.819 163.767,198.613 156.165,204.677 160.484 " stroke="none" fill="#e5e9ed" fill-rule="evenodd"></path><path id="path3" d="M93.938 151.579 C 93.938 184.145,94.002 197.467,94.079 181.184 C 94.156 164.901,94.156 138.257,94.079 121.974 C 94.002 105.691,93.938 119.013,93.938 151.579 M63.032 215.635 C 63.687 215.761,64.635 215.757,65.138 215.625 C 65.641 215.493,65.105 215.390,63.947 215.396 C 62.789 215.402,62.378 215.510,63.032 215.635 " stroke="none" fill="#ebeef1" fill-rule="evenodd"></path><path id="path4" d="M192.652 147.611 C 190.988 149.327,190.656 149.443,186.890 149.610 L 182.895 149.788 186.867 149.894 L 190.839 150.000 192.895 147.895 C 194.025 146.737,194.830 145.789,194.684 145.789 C 194.537 145.789,193.623 146.609,192.652 147.611 M208.659 147.763 L 210.740 150.000 214.712 149.895 L 218.684 149.791 214.737 149.608 C 211.025 149.436,210.664 149.309,208.684 147.476 L 206.579 145.526 208.659 147.763 M297.340 256.184 L 295.526 258.158 297.500 256.344 C 299.337 254.656,299.716 254.211,299.314 254.211 C 299.226 254.211,298.338 255.099,297.340 256.184 M310.665 308.799 C 311.465 308.920,312.649 308.916,313.297 308.792 C 313.944 308.667,313.289 308.568,311.842 308.572 C 310.395 308.576,309.865 308.678,310.665 308.799 " stroke="none" fill="#f2f4f6" fill-rule="evenodd"></path></g></svg>